# xmcd
#
# Track frame offsets:
#	150
#	17167
#	35492
#	61690
#	85827
#	109082
#	135142
#	155810
#	169885
#	186405
#	203595
#	220277
#	241827
#	262027
#	290212
#	312797
#
# Disc length: 4422
#
# Revision: 3
# Processed by: cddbd v1.5.1PL0 Copyright (c) Steve Scherf et al.
# Submitted via: ExactAudioCopy v0.90b4
# Normalized: r2:DSETVAR1
#
DISCID=e3114410
DTITLE=Various Artist - WoW Worship Green D1
DYEAR=2001
DGENRE=Praise and Worship
TTITLE0=Paul Baloche and Gary Sadler - Rise Up And Praise Him
TTITLE1=Darlene Zschech - All Things Are Possible
TTITLE2=Darrell Evans - Trading My Sorrows
TTITLE3=David Ruis - Every Move I Make
TTITLE4=Tommy Walker - That's Why We Praise Him
TTITLE5=Chris Tomlin - We Fall Down
TTITLE6=Lamont Hiebert - Unashamed Love
TTITLE7=Tommy Walker - He Knows My Name
TTITLE8=Brenton Brown and Brian Doerksen - Hallelujah (Your Love Is Amazing)
TTITLE9=Brenton Brown - Lord Reign In Me
TTITLE10=Reuben Morgan - My Redeemer Lives
TTITLE11=Tom Wuest - Fuel
TTITLE12=David Ruis - You're Worthy Of My Praise
TTITLE13=Marie Barnett - Breathe
TTITLE14=Michael W Smith - Agnus Dei
TTITLE15=Martin Smith - Shout To The North
EXTD=YEAR: 2001
EXTT0=
EXTT1=
EXTT2=
EXTT3=
EXTT4=
EXTT5=
EXTT6=
EXTT7=
EXTT8=
EXTT9=
EXTT10=
EXTT11=
EXTT12=
EXTT13=
EXTT14=
EXTT15=
PLAYORDER=
